<?xml version="1.0" encoding="UTF-8"?>
<svg id="Layer_1" data-name="Layer 1" xmlns="http://www.w3.org/2000/svg" viewBox="0 0 500 500">
  <defs>
    <style>
      .cls-1 {
        fill: #00b8aa;
      }

      .cls-1, .cls-2, .cls-3 {
        stroke-width: 0px;
      }

      .cls-2 {
        fill: #fff;
      }

      .cls-3 {
        opacity: .35;
      }
    </style>
  </defs>
  <circle class="cls-1" cx="250" cy="250" r="248.21"/>
  <path id="Path_18" data-name="Path 18" class="cls-3" d="M343.4,356.95v54.05c-1.31-.75-3.19-1.88-5.63-3.38-5.32-3.81-10.4-7.94-15.2-12.39-8.25-7.32-15.96-15.22-23.08-23.64-9.21,2.25-18.66,3.39-28.15,3.38-12.74.11-25.45-1.31-37.86-4.22-9.86-2.18-19.38-5.69-28.3-10.41-6.82-3.76-13.11-8.39-18.72-13.79-4.39-4.07-8.1-8.82-10.98-14.07-1.95-3.55-3.06-7.5-3.24-11.54h27.03c24.21,0,45.74-4.22,64.59-12.67,18.24-7.93,33.83-20.92,44.9-37.44,11.07-16.51,16.61-35.84,16.61-57.99,36.03,18.2,54.05,43.72,54.05,76.56,0,26.83-12.01,49.35-36.03,67.56ZM199.28,302.91c-9.48.01-18.94-1.12-28.15-3.38-6.98,8.27-14.51,16.08-22.52,23.36-7.32,6.57-12.76,10.88-16.33,12.95l-5.07,3.1v-54.05c-24.02-18.2-36.03-40.72-36.03-67.56-.05-16.91,5-33.44,14.5-47.43,9.89-14.74,23.48-26.63,39.41-34.48,16.84-8.5,35.47-12.84,54.33-12.67,18.86-.18,37.49,4.17,54.33,12.67,15.9,7.83,29.45,19.72,39.26,34.48,9.41,14.02,14.41,30.54,14.36,47.43.25,16.31-4.9,32.24-14.64,45.32-10.06,13.37-23.59,23.74-39.13,29.98-17.24,7.02-35.71,10.52-54.32,10.27ZM199.28,140.77c-15.58-.16-31,3.11-45.18,9.57-13.01,5.75-24.3,14.77-32.79,26.18-16.14,21.41-16.14,50.93,0,72.34,8.51,11.43,19.8,20.49,32.79,26.32,14.15,6.55,29.58,9.87,45.18,9.71,15.6.16,31.03-3.16,45.19-9.71,12.99-5.83,24.28-14.89,32.79-26.32,16.14-21.41,16.14-50.93,0-72.34-8.49-11.41-19.79-20.43-32.79-26.18-14.18-6.46-29.6-9.73-45.18-9.57Z"/>
  <path id="Path_18-2" data-name="Path 18" class="cls-2" d="M351.33,349.03v54.05c-1.31-.75-3.19-1.88-5.63-3.38-5.32-3.81-10.4-7.94-15.2-12.39-8.25-7.32-15.96-15.22-23.08-23.64-9.21,2.25-18.66,3.39-28.15,3.38-12.74.11-25.45-1.31-37.86-4.22-9.86-2.18-19.38-5.69-28.3-10.41-6.82-3.76-13.11-8.39-18.72-13.79-4.39-4.07-8.1-8.82-10.98-14.07-1.95-3.55-3.06-7.5-3.24-11.54h27.03c24.21,0,45.74-4.22,64.59-12.67,18.24-7.93,33.83-20.92,44.9-37.44,11.07-16.51,16.61-35.84,16.61-57.99,36.03,18.2,54.05,43.72,54.05,76.56,0,26.83-12.01,49.35-36.03,67.56ZM207.21,294.98c-9.48.01-18.94-1.12-28.15-3.38-6.98,8.27-14.51,16.08-22.52,23.36-7.32,6.57-12.76,10.88-16.33,12.95l-5.07,3.1v-54.05c-24.02-18.2-36.03-40.72-36.03-67.56-.05-16.91,5-33.44,14.5-47.43,9.89-14.74,23.48-26.63,39.41-34.48,16.84-8.5,35.47-12.84,54.33-12.67,18.86-.18,37.49,4.17,54.33,12.67,15.9,7.83,29.45,19.72,39.26,34.48,9.41,14.02,14.41,30.54,14.36,47.43.25,16.31-4.9,32.24-14.64,45.32-10.06,13.37-23.59,23.74-39.13,29.98-17.24,7.02-35.71,10.52-54.32,10.27ZM207.21,132.85c-15.58-.16-31,3.11-45.18,9.57-13.01,5.75-24.3,14.77-32.79,26.18-16.14,21.41-16.14,50.93,0,72.34,8.51,11.43,19.8,20.49,32.79,26.32,14.15,6.55,29.58,9.87,45.18,9.71,15.6.16,31.03-3.16,45.19-9.71,12.99-5.83,24.28-14.89,32.79-26.32,16.14-21.41,16.14-50.93,0-72.34-8.49-11.41-19.79-20.43-32.79-26.18-14.18-6.46-29.6-9.73-45.18-9.57Z"/>
</svg>