<?xml version="1.0" encoding="UTF-8"?>
<svg id="Layer_1" data-name="Layer 1" xmlns="http://www.w3.org/2000/svg" viewBox="0 0 500 500">
  <defs>
    <style>
      .cls-1, .cls-2, .cls-3, .cls-4, .cls-5 {
        stroke-width: 0px;
      }

      .cls-1, .cls-5 {
        fill-rule: evenodd;
      }

      .cls-6 {
        opacity: .35;
      }

      .cls-3, .cls-5 {
        fill: #fff;
      }

      .cls-4 {
        fill: #7e8435;
      }
    </style>
  </defs>
  <circle class="cls-4" cx="250" cy="250" r="248.21"/>
  <g id="user_duotone" data-name="user duotone" class="cls-6">
    <path id="Path_20" data-name="Path 20" class="cls-1" d="M202.75,305.84c-27.42,0-49.65,22.23-49.65,49.65,0,6.83,4.4,11.4,9.42,12.23,26.3,4.33,52.9,6.52,79.56,6.56,26.65-.04,53.26-2.23,79.56-6.56,5.02-.83,9.42-5.4,9.42-12.23,0-27.42-22.23-49.66-49.65-49.66h-78.65ZM202.75,285.3c-38.76,0-70.19,31.42-70.19,70.19,0,15.99,10.82,29.87,26.6,32.49,27.41,4.51,55.14,6.8,82.91,6.84,27.78-.04,55.51-2.33,82.91-6.84,15.77-2.61,26.6-16.5,26.6-32.49,0-38.76-31.43-70.18-70.19-70.18h-78.65Z"/>
    <path id="Path_21" data-name="Path 21" class="cls-2" d="M173.63,189.48c0-37.8,30.64-68.45,68.45-68.45s68.45,30.64,68.45,68.45-30.64,68.45-68.45,68.45-68.45-30.64-68.45-68.45Z"/>
  </g>
  <g id="user_duotone-2" data-name="user duotone">
    <path id="Path_20-2" data-name="Path 20" class="cls-5" d="M210.68,297.91c-27.42,0-49.65,22.23-49.65,49.65,0,6.83,4.4,11.4,9.42,12.23,26.3,4.33,52.9,6.52,79.56,6.56,26.65-.04,53.26-2.23,79.56-6.56,5.02-.83,9.42-5.4,9.42-12.23,0-27.42-22.23-49.66-49.65-49.66h-78.65ZM210.68,277.38c-38.76,0-70.19,31.42-70.19,70.19,0,15.99,10.82,29.87,26.6,32.49,27.41,4.51,55.14,6.8,82.91,6.84,27.78-.04,55.51-2.33,82.91-6.84,15.77-2.61,26.6-16.5,26.6-32.49,0-38.76-31.43-70.18-70.19-70.18h-78.65Z"/>
    <path id="Path_21-2" data-name="Path 21" class="cls-3" d="M181.55,181.55c0-37.8,30.64-68.45,68.45-68.45s68.45,30.64,68.45,68.45-30.64,68.45-68.45,68.45-68.45-30.64-68.45-68.45Z"/>
  </g>
</svg>