<?xml version="1.0" encoding="UTF-8"?>
<svg id="Layer_1" data-name="Layer 1" xmlns="http://www.w3.org/2000/svg" viewBox="0 0 500 500">
  <defs>
    <style>
      .cls-1 {
        fill: #7c8435;
        fill-rule: evenodd;
      }

      .cls-1, .cls-2, .cls-3 {
        stroke-width: 0px;
      }

      .cls-2 {
        fill: #7e8435;
      }

      .cls-3 {
        fill: #8e5823;
      }
    </style>
  </defs>
  <path class="cls-3" d="M256.57,356.42s-.02-.25-.05-.73c-.03-.54-.1-1.42-.13-2.34-.09-1.94-.14-4.68-.12-8.15.02-1.74.08-3.65.15-5.73.13-2.08.19-4.32.41-6.71.1-1.19.2-2.43.3-3.69.14-1.26.29-2.56.44-3.9.26-2.67.75-5.46,1.16-8.37,1.02-5.81,2.22-12.09,4.13-18.6.83-3.28,2.04-6.57,3.14-9.95.59-1.68,1.3-3.35,1.96-5.05.34-.85.67-1.7,1.01-2.55.34-.85.77-1.68,1.15-2.53.79-1.68,1.58-3.38,2.38-5.09.74-1.49,1.62-3.18,2.35-4.69,1.53-3.07,3.05-6.31,4.52-9.54,2.95-6.49,5.7-13.2,8.18-20.01,4.97-13.6,8.8-27.63,10.66-41.05.94-6.7,1.38-13.24,1.29-19.44-.08-6.2-.71-12.05-1.77-17.36-1.06-5.31-2.49-10.11-4.24-14.18-.21-.51-.41-1.02-.61-1.52-.2-.5-.46-.96-.67-1.43-.45-.93-.89-1.83-1.31-2.7-.9-1.7-1.83-3.2-2.61-4.6-.9-1.33-1.7-2.51-2.4-3.54-.34-.53-.7-.98-1.03-1.39-.33-.41-.63-.79-.9-1.13-1.07-1.35-1.65-2.07-1.65-2.07l.56-.53s.65.67,1.87,1.92c.3.31.65.67,1.02,1.05.38.38.79.81,1.19,1.3.82.98,1.75,2.11,2.8,3.37.94,1.34,2.05,2.79,3.15,4.45.52.85,1.06,1.73,1.62,2.64.27.46.58.92.84,1.41.26.49.52.99.79,1.5,2.23,4.04,4.22,8.89,5.89,14.34,1.67,5.45,2.94,11.54,3.67,18.05.74,6.51.96,13.43.68,20.56-.55,14.27-3.1,29.33-6.87,44.02-1.89,7.35-4.05,14.63-6.45,21.7-1.21,3.54-2.42,7-3.75,10.49-.66,1.78-1.27,3.32-1.93,5.06-.54,1.55-1.08,3.09-1.62,4.62-.26.77-.56,1.51-.78,2.28-.22.77-.44,1.54-.65,2.31-.42,1.54-.9,3.03-1.26,4.55-.66,3.07-1.43,6.01-1.87,8.98-1.11,5.86-1.6,11.52-2,16.72-.1,2.62-.3,5.11-.28,7.5-.02,1.19-.03,2.35-.05,3.48.02,1.13.04,2.22.06,3.29,0,2.12.16,4.1.22,5.93.12,1.83.24,3.5.37,5,.28,3,.55,5.34.78,6.86.11.81.2,1.25.25,1.61.07.41.11.63.11.63l-24.11,2.95Z"/>
  <path class="cls-3" d="M268.66,281.42s.04-.1.13-.3c.03-.08.08-.18.13-.29.06-.14.13-.31.2-.49.31-.75.75-1.93,1.29-3.45.53-1.53,1.15-3.41,1.79-5.6.64-2.19,1.32-4.7,1.94-7.46.66-2.76,1.2-5.78,1.74-9,.46-3.22.92-6.63,1.14-10.18.16-1.78.19-3.58.27-5.42.05-.92.01-1.84.02-2.76,0-.93.02-1.86-.02-2.8-.09-1.86-.11-3.76-.3-5.65-.08-.95-.16-1.89-.24-2.84l-.37-2.83c-.21-1.9-.6-3.76-.93-5.64-.15-.94-.39-1.86-.6-2.78-.22-.92-.43-1.85-.65-2.76-.52-1.81-1.03-3.61-1.59-5.38-.31-.87-.62-1.74-.93-2.6-.32-.86-.58-1.74-.96-2.56-.35-.83-.7-1.66-1.05-2.47-.35-.82-.67-1.64-1.08-2.41-.8-1.55-1.51-3.11-2.33-4.57-.84-1.45-1.66-2.85-2.45-4.21-.88-1.31-1.73-2.58-2.55-3.79-.21-.3-.41-.61-.61-.91-.21-.29-.43-.57-.65-.85-.43-.56-.85-1.1-1.26-1.63-.41-.53-.81-1.05-1.2-1.55-.19-.25-.39-.5-.58-.75-.2-.23-.41-.46-.6-.68-.8-.9-1.54-1.74-2.23-2.52-.69-.78-1.31-1.51-1.94-2.1-2.46-2.44-3.87-3.84-3.87-3.84l.49-.6s1.59,1.22,4.38,3.35c.72.52,1.43,1.17,2.23,1.87.8.7,1.67,1.46,2.59,2.27.23.2.47.41.71.62.22.22.45.45.68.68.46.46.94.94,1.43,1.42.49.49.99.99,1.51,1.51.25.26.52.51.78.79.25.28.49.56.74.85,1.01,1.15,2.05,2.34,3.14,3.58,1.01,1.31,2.05,2.66,3.12,4.05,1.05,1.41,2.01,2.94,3.06,4.47.54.76.99,1.58,1.47,2.39.48.82.96,1.64,1.45,2.47.51.82.91,1.71,1.37,2.58.45.88.9,1.76,1.35,2.65.84,1.8,1.64,3.66,2.45,5.53.36.95.72,1.91,1.08,2.87.36.96.74,1.92,1.04,2.91.62,1.97,1.3,3.94,1.79,5.96l.8,3.02c.22,1.02.44,2.03.66,3.04.48,2.03.76,4.07,1.12,6.09.18,1.01.28,2.03.42,3.04.12,1.01.29,2.01.36,3.02.18,2,.39,3.99.47,5.94.26,3.91.24,7.7.19,11.3-.13,3.59-.3,6.99-.63,10.12-.29,3.13-.68,6-1.08,8.54-.4,2.54-.82,4.76-1.21,6.59-.39,1.83-.73,3.28-1,4.3-.07.26-.13.48-.18.68-.06.22-.12.41-.16.55-.07.26-.11.39-.11.39l-16.17-5.75Z"/>
  <path class="cls-3" d="M253.71,354.12s.02-.22.06-.64c.04-.37.1-.92.18-1.64.17-1.41.42-3.42.84-5.96.84-5.07,2.26-12.22,4.82-20.65,1.3-4.21,2.86-8.74,4.84-13.44,2-4.7,4.38-9.59,7.32-14.46,2.95-4.86,6.5-9.7,10.79-14.15,4.27-4.45,9.4-8.44,15.17-11.36,2.88-1.46,5.9-2.65,8.98-3.52.77-.22,1.55-.4,2.32-.6.78-.18,1.56-.32,2.33-.48l.15-.03.16-.03h.06s.25-.05.25-.05l.51-.07,1.01-.15c.75-.1,1.51-.19,2.26-.29,5.88-.66,11.71-.71,17.28-.04,5.56.67,10.84,1.94,15.59,3.7,4.75,1.76,9.02,3.89,12.7,6.2,3.68,2.31,6.83,4.71,9.42,7.03,2.6,2.31,4.69,4.48,6.31,6.36,1.63,1.86,2.78,3.42,3.53,4.51.76,1.08,1.12,1.69,1.12,1.69l-.61.47s-.48-.48-1.44-1.33c-.97-.85-2.42-2.05-4.33-3.47-1.92-1.41-4.3-3.04-7.14-4.69-2.85-1.62-6.11-3.33-9.81-4.78-3.69-1.45-7.75-2.76-12.13-3.58-4.36-.85-9-1.31-13.77-1.18-4.76.12-9.66.71-14.49,1.9l-1.76.45-.99.27-.49.14-.25.07-.06.02c.15-.03.01,0,.03,0l-.1.03-1.65.53c-.54.2-1.08.39-1.62.6-2.14.86-4.18,1.92-6.11,3.17-3.86,2.5-7.25,5.76-10.21,9.4-2.95,3.65-5.41,7.73-7.5,11.89-2.11,4.16-3.82,8.42-5.23,12.57-1.43,4.14-2.59,8.17-3.5,11.94-1.86,7.53-2.9,13.98-3.51,18.45-.3,2.24-.52,3.99-.63,5.15-.1,1.09-.15,1.67-.15,1.67l-20.52-1.64Z"/>
  <path class="cls-3" d="M381.77,227.86s.02.09.06.29c.03.19.08.47.11.83.07.72.11,1.78-.04,3.12-.14,1.34-.47,2.95-1.11,4.72-.63,1.77-1.55,3.69-2.78,5.66-1.22,1.97-2.79,3.93-4.57,5.88-.46.48-.92.96-1.4,1.45-.47.49-.99.93-1.49,1.41-1,.97-2.11,1.84-3.21,2.77-1.12.89-2.3,1.76-3.49,2.64-1.22.81-2.44,1.71-3.72,2.48-2.54,1.61-5.19,3.13-7.89,4.53-2.7,1.43-5.45,2.71-8.18,3.95-1.38.59-2.74,1.17-4.09,1.75-1.35.58-2.7,1.07-4.03,1.6-2.64,1.07-5.25,1.92-7.7,2.82-2.47.83-4.81,1.57-6.97,2.28-2.17.65-4.17,1.24-5.94,1.76-1.77.54-3.32.91-4.6,1.27-2.56.69-4.02,1.08-4.02,1.08l-2.24-11.22s1.44-.22,3.97-.61c1.26-.2,2.81-.4,4.55-.72,1.75-.31,3.73-.66,5.88-1.05,2.14-.45,4.47-.9,6.92-1.43,2.43-.59,5.03-1.12,7.65-1.86,1.31-.36,2.67-.69,4.01-1.09,1.34-.4,2.7-.81,4.07-1.22,2.71-.89,5.47-1.81,8.17-2.87,2.71-1.04,5.36-2.19,7.92-3.44,1.3-.6,2.51-1.3,3.75-1.94,1.21-.69,2.4-1.38,3.54-2.1,1.12-.75,2.26-1.45,3.28-2.24.52-.39,1.05-.75,1.54-1.16.49-.4.97-.8,1.44-1.19,1.85-1.62,3.51-3.27,4.84-4.96,1.33-1.68,2.38-3.36,3.14-4.92.77-1.57,1.25-3.02,1.51-4.25.27-1.23.35-2.21.36-2.88,0-.33,0-.59-.02-.75-.01-.16-.03-.25-.02-.25l.76-.15Z"/>
  <path class="cls-3" d="M274.23,284.42s.03-.16.1-.48c.08-.36.19-.87.33-1.46.28-1.22.72-2.96,1.32-5.15.61-2.18,1.36-4.81,2.31-7.78.94-2.98,2.08-6.3,3.41-9.89,1.33-3.59,2.86-7.43,4.6-11.45.86-2.01,1.81-4.05,2.76-6.13,1.02-2.06,1.98-4.19,3.1-6.3.55-1.06,1.1-2.12,1.66-3.2.57-1.07,1.17-2.13,1.76-3.2,1.16-2.16,2.45-4.28,3.73-6.42,1.28-2.15,2.68-4.24,4.03-6.37.72-1.04,1.44-2.08,2.16-3.13.72-1.04,1.43-2.09,2.2-3.1,1.52-2.03,3-4.09,4.62-6.02.79-.98,1.59-1.96,2.38-2.93.83-.94,1.66-1.88,2.48-2.82.84-.92,1.62-1.88,2.49-2.76.86-.89,1.71-1.77,2.56-2.65,1.66-1.79,3.48-3.38,5.19-5.01.43-.4.86-.8,1.29-1.2.45-.38.89-.76,1.34-1.13.89-.75,1.76-1.49,2.63-2.23.44-.36.86-.74,1.3-1.08.45-.34.89-.68,1.34-1.01.88-.67,1.76-1.33,2.62-1.98.43-.33.86-.65,1.28-.97.44-.3.88-.59,1.32-.89.87-.58,1.73-1.16,2.57-1.73,1.66-1.17,3.37-2.13,4.99-3.08.81-.47,1.6-.94,2.37-1.39.76-.47,1.57-.82,2.33-1.22,1.52-.77,2.96-1.5,4.32-2.19,2.79-1.21,5.21-2.27,7.22-3.07,4.09-1.44,6.43-2.27,6.43-2.27l.27.73s-2.21,1.06-6.09,2.91c-1.9,1-4.15,2.3-6.73,3.77-1.24.81-2.57,1.67-3.97,2.58-.69.47-1.43.89-2.12,1.42-.7.52-1.42,1.05-2.15,1.6-1.46,1.09-3,2.19-4.47,3.49-.75.63-1.51,1.27-2.28,1.92-.39.32-.78.65-1.17.98-.37.35-.75.71-1.13,1.06-.75.71-1.52,1.43-2.3,2.17-.39.36-.78.73-1.17,1.1-.39.37-.75.78-1.13,1.17-.75.79-1.51,1.59-2.27,2.39-.38.4-.77.8-1.15,1.21-.37.42-.73.85-1.1,1.28-1.45,1.73-3.01,3.41-4.4,5.28-.71.92-1.43,1.84-2.15,2.76-.73.91-1.37,1.91-2.07,2.86-.68.96-1.36,1.93-2.05,2.9-.64,1-1.29,2-1.94,3.01-1.33,1.98-2.51,4.08-3.73,6.13-.62,1.02-1.18,2.08-1.75,3.14-.57,1.05-1.14,2.1-1.7,3.15-1.05,2.15-2.15,4.25-3.13,6.39-.98,2.15-1.97,4.26-2.84,6.4-.44,1.07-.9,2.12-1.32,3.17-.41,1.06-.82,2.12-1.23,3.16-.83,2.08-1.52,4.18-2.26,6.2-.68,2.05-1.36,4.04-1.96,6.01-1.22,3.92-2.25,7.66-3.13,11.12-.87,3.46-1.59,6.66-2.16,9.49-.58,2.83-1.01,5.3-1.34,7.33-.32,2.02-.54,3.61-.67,4.66-.07.54-.11.9-.13,1.13-.03.27-.04.42-.04.42l-17.59-2.78Z"/>
  <path class="cls-3" d="M103.09,294.03s1.61-1.29,4.65-3.17c1.52-.96,3.41-2.04,5.63-3.22,2.22-1.18,4.79-2.38,7.65-3.61,2.88-1.16,6.04-2.4,9.49-3.41.86-.28,1.73-.52,2.63-.76.89-.24,1.8-.49,2.72-.72,1.85-.4,3.74-.88,5.7-1.19,3.9-.76,8.01-1.15,12.22-1.42,1.06-.03,2.11-.05,3.18-.08l1.6-.04,1.6.04c1.08.03,2.15.06,3.23.1,1.08.05,2.15.17,3.23.25,4.33.33,8.63,1.09,12.84,2,1.07.19,2.08.52,3.12.78,1.03.28,2.06.55,3.09.83,2.02.61,4,1.3,5.96,1.95,1.93.71,3.8,1.5,5.65,2.23.94.35,1.81.8,2.69,1.2.88.41,1.75.82,2.6,1.23,1.74.78,3.33,1.69,4.89,2.53,1.55.86,3.11,1.65,4.48,2.55,1.4.87,2.75,1.71,4.02,2.5,1.31.77,2.42,1.64,3.53,2.39,2.19,1.54,4.13,2.87,5.6,4.08,3.02,2.38,4.74,3.74,4.74,3.74l-16.94,17.26s-1.23-1.39-3.38-3.83c-1.05-1.27-2.45-2.63-4.04-4.25-.81-.79-1.61-1.72-2.57-2.53-.94-.85-1.92-1.75-2.95-2.68-1.01-.98-2.16-1.83-3.32-2.78-1.17-.94-2.35-1.96-3.66-2.84-.65-.46-1.3-.93-1.96-1.41-.67-.47-1.33-.99-2.04-1.41-1.41-.88-2.85-1.83-4.34-2.71-1.52-.82-3.06-1.71-4.66-2.54-.81-.38-1.63-.77-2.44-1.16-.83-.37-1.64-.82-2.5-1.14-3.39-1.4-6.91-2.73-10.56-3.68-.91-.24-1.82-.52-2.74-.73-.92-.2-1.85-.4-2.77-.59l-1.39-.3-1.4-.22c-.93-.15-1.87-.3-2.79-.44-3.73-.43-7.46-.77-11.09-.72-1.82-.05-3.61.08-5.37.13-.88.05-1.74.14-2.61.2-.86.06-1.71.14-2.55.25-3.36.35-6.51.97-9.42,1.57-2.9.66-5.55,1.36-7.86,2.09-2.32.73-4.33,1.45-5.95,2.1-3.27,1.29-5.04,2.23-5.04,2.23l-.42-.65Z"/>
  <path class="cls-3" d="M109.51,234.23s.22,1.25.9,3.39c.66,2.13,1.79,5.14,3.53,8.53.86,1.7,1.91,3.47,3.08,5.3,1.21,1.8,2.53,3.66,4.06,5.45.74.91,1.57,1.78,2.37,2.67.86.85,1.68,1.75,2.61,2.55.45.41.9.83,1.36,1.24l1.43,1.18c.93.81,1.96,1.51,2.95,2.25,1,.73,2.06,1.37,3.07,2.06,1.07.62,2.11,1.25,3.17,1.83,1.09.54,2.14,1.12,3.21,1.62,1.09.47,2.15.97,3.21,1.41,1.08.41,2.13.81,3.17,1.21,1.06.34,2.09.67,3.09.99,1,.34,2.01.55,2.97.81.96.26,1.88.5,2.79.67.9.19,1.77.37,2.59.54.82.17,1.62.26,2.36.39,1.48.23,2.77.44,3.84.53,2.14.23,3.36.36,3.36.36l-1.46,10.23s-1.33-.3-3.65-.82c-1.16-.23-2.56-.63-4.15-1.07-.8-.23-1.65-.43-2.53-.73-.88-.29-1.81-.6-2.78-.92-.97-.3-1.97-.69-2.99-1.09-1.02-.42-2.09-.78-3.16-1.28-1.07-.48-2.16-.98-3.28-1.49-1.09-.57-2.2-1.15-3.34-1.73-1.12-.61-2.22-1.3-3.35-1.96-1.12-.68-2.21-1.45-3.32-2.19-1.09-.78-2.16-1.6-3.23-2.41-1.03-.88-2.09-1.71-3.09-2.63-.98-.93-2-1.82-2.91-2.81l-1.39-1.45c-.44-.5-.88-1.01-1.31-1.51-.89-.98-1.66-2.05-2.47-3.05-.75-1.05-1.52-2.07-2.19-3.13-1.39-2.08-2.56-4.2-3.61-6.22-1-2.05-1.88-4.01-2.56-5.87-2.79-7.43-3.12-12.73-3.12-12.73l.77-.1Z"/>
  <path class="cls-3" d="M106.01,169.93s4.97-.37,12.37.54c1.85.22,3.85.54,5.95.94,2.1.42,4.31.92,6.57,1.57,1.14.3,2.26.69,3.43,1.04,1.14.41,2.31.79,3.46,1.26,1.15.46,2.32.92,3.46,1.45,1.16.5,2.29,1.07,3.42,1.64,1.14.55,2.22,1.23,3.34,1.83,1.08.66,2.15,1.34,3.21,2.02,1.02.73,2.07,1.42,3.04,2.19.96.78,1.96,1.49,2.85,2.31,1.83,1.57,3.5,3.21,5.02,4.83.74.83,1.46,1.64,2.15,2.43.65.82,1.28,1.62,1.88,2.38.62.75,1.1,1.55,1.62,2.27.49.74,1.01,1.41,1.4,2.1.8,1.36,1.57,2.52,2.08,3.54,1.05,2.02,1.65,3.17,1.65,3.17l-7.26,3.14s-.44-1.07-1.21-2.94c-.37-.94-.96-2.02-1.56-3.3-.29-.65-.69-1.28-1.07-1.97-.4-.68-.77-1.44-1.26-2.15-.47-.73-.97-1.49-1.48-2.28-.56-.76-1.13-1.54-1.72-2.34-1.23-1.57-2.6-3.19-4.12-4.76-.74-.82-1.59-1.54-2.4-2.33-.82-.78-1.73-1.49-2.6-2.25-.91-.72-1.84-1.43-2.79-2.13-.98-.65-1.92-1.38-2.94-1.99-1.01-.63-2.01-1.27-3.06-1.83-1.03-.6-2.08-1.13-3.14-1.66-1.05-.54-2.13-1-3.17-1.49-1.07-.43-2.12-.91-3.18-1.29-2.1-.82-4.19-1.49-6.18-2.08-2-.57-3.91-1.06-5.69-1.44-3.56-.78-6.59-1.18-8.71-1.39-2.13-.22-3.33-.24-3.33-.24l-.02-.78Z"/>
  <path class="cls-3" d="M327.17,119.7s-.85.56-2.25,1.71c-1.4,1.14-3.34,2.86-5.46,5.1-2.12,2.24-4.42,5.03-6.55,8.22-1.04,1.61-2.09,3.29-3,5.08-.49.87-.89,1.81-1.34,2.71-.41.93-.81,1.86-1.18,2.8-.72,1.9-1.38,3.81-1.86,5.74-.13.48-.25.96-.37,1.43-.1.48-.2.96-.3,1.44-.09.48-.2.95-.28,1.42-.07.47-.14.94-.21,1.41-.07.47-.15.93-.2,1.39-.04.46-.08.92-.13,1.37-.04.45-.08.9-.13,1.34-.02.44-.03.88-.05,1.31-.11,1.72-.03,3.35,0,4.85.06.75.11,1.47.16,2.15.04.68.1,1.33.2,1.93.18,1.21.26,2.27.45,3.13.33,1.72.51,2.7.51,2.7l-5.18.94s-.13-1.08-.36-2.96c-.14-.94-.16-2.1-.26-3.41-.06-.66-.07-1.36-.07-2.1,0-.74-.01-1.52-.02-2.33.08-1.63.12-3.38.36-5.23.05-.46.1-.93.15-1.4.08-.47.15-.95.23-1.43.08-.48.16-.97.24-1.46.09-.49.21-.98.31-1.47.11-.49.22-.99.33-1.49.12-.5.27-.99.41-1.5.14-.5.28-1,.42-1.51.17-.5.33-1,.5-1.5.65-2.01,1.49-4,2.38-5.94.46-.97.95-1.92,1.44-2.86.53-.92,1.02-1.86,1.59-2.74,1.08-1.8,2.28-3.48,3.48-5.07,2.43-3.16,4.97-5.86,7.3-8,4.65-4.31,8.33-6.42,8.33-6.42l.41.66Z"/>
  <path class="cls-3" d="M197.9,76.53s1.07.69,2.74,2.1c1.66,1.42,3.94,3.59,6.3,6.53,1.19,1.46,2.4,3.12,3.56,4.95,1.19,1.81,2.28,3.83,3.34,5.96.49,1.08,1.03,2.17,1.47,3.31.23.57.47,1.13.69,1.72.21.58.41,1.17.62,1.76.44,1.18.74,2.4,1.12,3.61.31,1.23.63,2.46.9,3.71.51,2.5.93,5.02,1.16,7.52.11,1.25.25,2.5.28,3.73.04,1.23.13,2.45.1,3.65-.02,1.2.01,2.38-.06,3.53-.07,1.15-.13,2.28-.19,3.38-.23,2.18-.39,4.26-.71,6.14-.14.95-.28,1.86-.41,2.72-.17.86-.33,1.67-.47,2.43-.3,1.53-.57,2.86-.85,3.94-.53,2.17-.84,3.41-.84,3.41l-7.15-2.23s.38-1.13,1.05-3.11c.36-.99.71-2.2,1.11-3.6.2-.7.41-1.45.64-2.23.19-.79.39-1.63.6-2.5.46-1.74.76-3.65,1.15-5.66.14-1.01.29-2.06.44-3.12.16-1.07.22-2.16.33-3.28.13-1.11.14-2.25.2-3.4.08-1.15.04-2.31.04-3.49-.02-2.35-.21-4.73-.48-7.11-.15-1.19-.35-2.36-.55-3.54-.26-1.16-.45-2.34-.77-3.48-.15-.57-.3-1.14-.44-1.71-.16-.56-.34-1.12-.51-1.67-.32-1.12-.74-2.18-1.12-3.25-.83-2.1-1.7-4.11-2.69-5.94-.96-1.84-1.98-3.53-3.01-5.03-2.03-3.03-4.06-5.32-5.56-6.84-1.51-1.52-2.46-2.25-2.46-2.25l.45-.63Z"/>
  <path class="cls-2" d="M245.58,72.7s26.67-43.76,64.99-54.12c-15.54,8.8-48.68,38.84-60.07,58.26,6.73,2.59,33.41,9.58,47.78-13.46,14.37-23.05,20.58-51.53,35.6-55.41-20.97-.52-54.89-.52-78.2,21.49-23.3,22.01-13.72,41.17-10.1,43.24Z"/>
  <path class="cls-2" d="M200.48,74.62s-28.43-30.62-60.73-32.66c13.84,4.51,45.21,23.11,57.47,36.77-4.96,3.16-26.53,16-41.76-.08-15.23-16.07-23.43-40.73-36.06-41.39,16.67-3.83,43.77-9.34,65.97,4.45,22.2,13.79,17.66,30.66,15.1,32.91Z"/>
  <path class="cls-2" d="M103.7,167.88s-42.55.93-65.95,24.16c12.8-7.5,48.18-18.8,66.88-18.89-.94,5.92-5.76,31.03-28.3,31.75-22.54.72-46.87-9.7-55.91-.53,8.36-15.29,22.49-39.66,48.01-47.23,25.52-7.58,35.3,7.29,35.28,10.75Z"/>
  <path class="cls-2" d="M167.4,132.25s5.14-20.36-2.83-34.54c1.88,7.07,2.61,25.38.2,34.29-2.69-1.23-12.06-6.08-9.44-16.9,2.62-10.82,8.83-21.75,5.65-27.25,6.17,5.98,18.29,17.77,18.54,30.9.25,13.13-10.48,13.96-12.13,13.5Z"/>
  <path class="cls-2" d="M325.79,118.99s26.76-22.35,53.72-20.64c-11.94,2.27-39.87,14.37-51.46,24.38,3.77,3.14,19.43,13.49,33.73,1.79,14.3-11.7,24.54-28.69,35.07-27.91-13.4-4.93-35.25-12.35-55.09-3.28-19.83,9.08-17.86,23.52-15.97,25.65Z"/>
  <path class="cls-2" d="M369.7,160.83s44.98-11.45,76.35,6.11c-15.63-4.14-56.11-5.67-75.79-.31,2.72,5.94,15.57,27.36,39.46,21.53,23.9-5.82,45.95-20.33,58.14-13.34-13.25-13.62-35.21-35.09-64.24-35.6-29.02-.5-34.95,17.97-33.92,21.61Z"/>
  <path class="cls-2" d="M382.1,228.19s-.23-13.03-7.31-20.23c2.28,3.93,5.69,14.78,5.7,20.51-1.81-.3-8.56-2.19-8.76-9.1-.19-6.91,2.11-13.95-.69-16.74,4.67,2.58,15.01,4.84,17.47,14.81,1.95,7.91-5.35,10.75-6.41,10.74Z"/>
  <path class="cls-2" d="M248.22,166.7s-8.8-11.56-19.91-13.36c4.64,2.03,14.86,9.53,18.64,14.68-1.82.93-9.14,3.68-13.87-2.4-4.72-6.08-7.31-13.93-11.66-14.59,5.9-.76,15.47-1.75,22.68,3.78,7.22,5.52,5.08,11.21,4.11,11.9Z"/>
  <path class="cls-2" d="M285.19,125.42s-15.86-16.37-33.5-17.11c7.6,2.3,24.93,12.08,31.78,19.39-2.67,1.78-13.56,7.43-22.05-1.16-8.49-8.59-13.98-20.34-20.88-20.55,9.05-2.28,26.06-7.18,38.91-.98,14.95,7.21,7.12,19.16,5.75,20.41Z"/>
  <path class="cls-2" d="M106.25,233.27s-3.35-18.92,4.85-31.33c-2.18,6.33-4.05,22.99-2.44,31.28,2.53-.94,11.77-5.59,10.09-15.63-1.68-10.04-4.48-20.17-1.22-24.99-6.03,5.06-21.82,15.87-22.92,27.84-1.1,11.97,10.1,13.16,11.63,12.84Z"/>
  <path class="cls-2" d="M102.36,292.65s-36.44,21.25-45.58,52.62c7.5-12.65,32.75-39.44,48.91-48.51,2.02,5.58,7.35,27.65-11.84,39.11-19.2,11.46-40.14,21.15-43.57,33.45-.09-17.27-4.42-59.08,14.06-77.91,18.48-18.83,36.37-1.78,38.02,1.24Z"/>
  <path class="cls-2" d="M383.35,294.34s27.6,33.69,25.14,67.34c-2.69-14.94-17.47-49.96-29.84-64.56-3.97,4.67-17.08,24.11-2.63,42.11,14.45,18,35.55,30.99,34.44,44.13,6.31-16.68,15.85-43.88,4.74-68.76-11.1-24.88-29.17-22.58-31.85-20.25Z"/>
  <path class="cls-3" d="M272.58,413.09c.58,2.38,1.23,4.69,1.69,6.99,2.02,9.15,3.21,17.61,3.71,25.08.52,7.46.5,13.93.18,19.13-.1,1.62-.21,3.1-.34,4.46h40.66c-.02-1.37-.05-2.8-.1-4.31-.24-6.79-.99-14.89-2.51-24-1.5-9.11-3.91-19.19-7.34-29.85-.82-2.68-1.83-5.35-2.79-8.09-1-2.72-2.1-5.46-3.21-8.25-2.34-5.52-4.86-11.17-7.77-16.78-5.76-11.27-12.7-22.6-20.73-33.59-2.04-2.72-4.12-5.44-6.23-8.16-2.19-2.65-4.35-5.36-6.61-8-2.2-2.49-4.41-4.99-6.63-7.51-1.09-1.27-2.19-2.53-3.29-3.8-1.08-1.26-2.29-2.59-3.11-3.73-.91-1.18-1.83-2.36-2.74-3.55l-1.39-1.78c-.46-.61-.89-1.29-1.34-1.93-.89-1.3-1.78-2.6-2.67-3.91-.44-.66-.92-1.29-1.32-1.97l-1.23-2.04-2.47-4.09-.62-1.03-.56-1.06-1.12-2.12-2.26-4.25-2.03-4.37c-5.4-11.69-9.46-24.12-12.18-36.74-2.68-12.63-4.06-25.42-4.37-37.88-.32-12.46.43-24.6,1.94-36.03,1.51-11.44,3.78-22.17,6.49-31.92,2.71-9.76,5.85-18.53,9.06-26.15,3.17-7.64,6.58-14.01,9.49-19.2,1.54-2.54,2.84-4.87,4.16-6.77,1.3-1.92,2.33-3.61,3.32-4.86,1.9-2.57,2.92-3.95,2.92-3.95l-.59-.51s-1.15,1.28-3.3,3.68c-1.12,1.18-2.31,2.77-3.8,4.58-1.52,1.79-3.04,4.02-4.85,6.44-3.44,4.96-7.52,11.12-11.48,18.59-3.99,7.45-8.06,16.11-11.78,25.87-3.73,9.76-7.12,20.6-9.81,32.34-2.69,11.73-4.68,24.35-5.59,37.56-.91,13.21-.74,27.03.88,41.03,1.66,13.99,4.82,28.15,9.65,41.88.61,1.71,1.2,3.44,1.84,5.15l2.09,5.05,1.05,2.53.53,1.26.59,1.24c.79,1.65,1.59,3.29,2.38,4.94l1.19,2.47c.39.82.87,1.61,1.3,2.41.89,1.6,1.77,3.2,2.65,4.79.45.8.87,1.6,1.35,2.39l1.51,2.39c1.02,1.59,2.03,3.18,3.04,4.77,1.04,1.68,1.99,2.93,2.97,4.32.98,1.37,1.95,2.73,2.92,4.1,1.96,2.69,3.91,5.37,5.85,8.04,1.81,2.57,3.51,5.18,5.25,7.73,1.63,2.61,3.25,5.21,4.85,7.78,6.19,10.41,11.3,20.87,15.33,31.01,2.05,5.06,3.73,10.08,5.28,14.93.71,2.45,1.42,4.84,2.05,7.21Z"/>
  <path class="cls-3" d="M266.77,444.75c-.42,2.3-.88,4.37-1.42,6.14-1.06,3.55-2.23,6.04-3,7.42-.39.71-3.61,5.1-3.61,5.1l7.61,3.59h33.7c.68-2.37,1.32-5.03,1.85-7.99.6-3.2.99-6.72,1.26-10.53.22-3.8.22-7.88-.03-12.17-.58-8.55-2.23-17.96-5.36-27.5-1.48-4.81-3.44-9.58-5.55-14.43-2.23-4.78-4.64-9.62-7.44-14.35-5.52-9.5-12.14-18.78-19.55-27.68l-.69-.84-.37-.46-.33-.39-1.34-1.57c-.9-1.05-1.8-2.1-2.7-3.15-1.84-2.13-3.7-4.27-5.57-6.43-3.73-4.24-7.5-8.54-11.3-12.87-7.57-8.61-15.18-17.27-22.4-26.11-7.19-8.85-14.01-17.89-19.97-27.22-5.95-9.34-11.1-18.96-15.29-28.68-4.19-9.72-7.38-19.52-9.84-29.02-2.47-9.5-4.09-18.71-5.31-27.26-.28-2.14-.59-4.24-.84-6.3-.21-2.06-.42-4.08-.62-6.04-.1-.98-.2-1.96-.3-2.91-.07-.96-.14-1.91-.21-2.84-.14-1.87-.27-3.69-.4-5.45-.42-7.05-.66-13.23-.71-18.32-.14-5.09-.05-9.09-.05-11.83.02-2.73.02-4.19.02-4.19l-.78-.05s-.16,1.45-.45,4.17c-.28,2.72-.79,6.71-1.17,11.81-.47,5.1-.87,11.31-1.18,18.45-.05,1.79-.11,3.63-.16,5.53-.03.95-.06,1.92-.08,2.89,0,.98,0,1.97,0,2.98,0,2.01,0,4.08,0,6.19.04,2.11.13,4.28.19,6.49.34,8.84,1.02,18.46,2.57,28.59,1.54,10.12,3.83,20.78,7.21,31.56,3.38,10.78,7.84,21.66,13.17,32.29,5.34,10.63,11.59,20.94,18.11,30.92,6.56,9.96,13.4,19.58,20.07,28.95,3.32,4.67,6.6,9.29,9.85,13.87,1.59,2.27,3.17,4.53,4.74,6.78.79,1.14,1.58,2.28,2.36,3.41l1.17,1.7.29.42.24.37.53.81c5.74,8.54,10.56,17.1,14.28,25.37,1.9,4.12,3.41,8.2,4.78,12.13,1.23,3.95,2.37,7.76,3.07,11.42,1.58,7.31,1.95,13.92,1.75,19.55-.15,2.81-.42,5.38-.81,7.7Z"/>
  <path class="cls-1" d="M403.54,493.25h0c-.61-.17-1.25-.35-1.91-.55-10.47-3.15-18.28-6.23-21.98-7.66-3.69-1.43-3.57-.09-6.66,0-3.08.09-5.08-.99-7.32-3-2.24-2-4.72-1.63-7-1.66-2.27-.04-4.39-2.69-3.99-5,.39-2.3-2.51-1.32-7.99-1.33-5.48,0-13.6-4.23-16.32-5.99-2.73-1.77-8.18-1.87-12.99-2.33-4.81-.47-10.32-4.08-19.98-5.67-9.66-1.58-11.54-1.44-18.32,1-6.78,2.45-5.93.28-13.32.67-7.39.38-3.51,2.34-12.32,1.66-8.81-.67-6.33-.84-11.32,2-5,2.84-5,2-5,2,0,0-6.35,1.52-7.66,1.67-1.3.14-5.36.76-8.99.66-3.63-.1-4.54,1.61-4.99,3-.46,1.39-5.33-.67-5.33-.67,0,0-1.79-1.93-7.66-2.99-5.88-1.07-5.33,1.97-7.66,3.99-2.33,2.02-6.45.1-13.32,0s-7.36,3.43-10.66,3.66c-3.3.24-3.06-.84-6.66-.99-3.6-.16-4.27,1.97-6.99,3.66-2.73,1.69-1.52-.78-4.33-1-2.82-.22-4.15.22-6.99,3-2.85,2.78-4.42,4.48-8.33,4.99-3.91.51-5.48.7-8.99,3.33-2,1.5-2.45,2.4-2.8,3.38.87,1.3,2.23,2.5,4.29,3.48,5.09,2.43,8.03,3.14,11.39,3.19-.47-1.14-1.23-2.41-1.89-3.39-1.91-2.81,3.42,1.61,5.33,2.67,1.9,1.06.81-3.79.66-6-.15-2.21,1.06-4.14,3-3.99,1.94.14,2.6,5.3,1.66,8.66-.93,3.35,5.48-3.67,8.33-8,2.85-4.33.18,4.33,1,6.33.82,2,3.72-1.39,3.33-5.66s1.6-.87,4,.67c2.39,1.54,5.48.57,5.32-1.67-.15-2.24,3.79,1.94,5,3,1.21,1.05,2.72-1.36,3.66-5.33.94-3.97,3.91-3.3,7.66-4.33,3.76-1.03.49,2.55-3.66,5.99-4.15,3.45.51,2,3.99-.66,3.49-2.67,1,1,1,1,0,0,6.42-.45,10.99-.34,4.57.12,3.61-.11,5.66-2.99,2.06-2.88,5.82,1.66,9,1.99,3.17.33,4.39-1.23,4.99-3.99.61-2.76,5.75,2.76,9.99,3,4.24.23,1.82-1.45,1.33-4.67-.48-3.21,4.12,2.01,9.66,2,5.54,0,8.69-1.81,12.66-3.33,1.84-.71,2.42-1.53,2.57-2.03.02.1.05.22.09.37.58,1.96,6.39.15,9.32-.67,2.94-.82,2.52-2.2,4.33-2.33,1.82-.13,4.24.13,6.66-.33,2.43-.46,2.12-1.06,4.33-3.33,2.21-2.28,1.73,1.97,5.67,2.66,3.93.69,3.33-2.51,3.66-4.33s4.81,1.52,6.99,3.66c2.18,2.15,1.76,2.7,5.66,4.67,3.91,1.96,3.97-1.66,9-3.33,5.02-1.67.12,1.67,0,3.99-.13,2.33,3.44.1,4.32-1.66s2.15-.36,2,1c-.15,1.35,3.79,2.27,6,.66,2.21-1.61,1.42.7,1.33,3.67-.09,2.96,2.81.36,6.66.66,3.84.3,1.6.91,2.66,4,1.06,3.08,3.79-.97,7-1,3.21-.03,7.08,1.55,9.65,4.99,2.58,3.45,3.18-.42,8-.33,4.81.09,1.24,1.43,4.66,3.66,3.42,2.24,2.03-.42,4-.33,1.96.09,4.69,2.94,7.65,4.33,2.97,1.39,3.39-1.09,6.33-1,1.59.05,2.11.82,2.32,1.89,2.49.04,4.75-.1,7.31-.49,7.49-1.13,15.91,1.09,11.26-6.51Z"/>
</svg>