<?xml version="1.0" encoding="UTF-8"?>
<svg id="Layer_1" data-name="Layer 1" xmlns="http://www.w3.org/2000/svg" xmlns:xlink="http://www.w3.org/1999/xlink" viewBox="0 0 500 500">
  <defs>
    <style>
      .cls-1 {
        fill: url(#linear-gradient);
      }

      .cls-1, .cls-2, .cls-3 {
        stroke-width: 0px;
      }

      .cls-4 {
        opacity: .39;
      }

      .cls-2 {
        fill: #fff;
      }

      .cls-3 {
        fill: #1c1c1c;
      }
    </style>
    <linearGradient id="linear-gradient" x1="251.79" y1="500.37" x2="251.79" y2="3.95" gradientUnits="userSpaceOnUse">
      <stop offset="0" stop-color="#ef973f"/>
      <stop offset="1" stop-color="#ffd16c"/>
    </linearGradient>
  </defs>
  <circle class="cls-1" cx="251.79" cy="252.16" r="248.21"/>
  <g id="Group_21" data-name="Group 21" class="cls-4">
    <path id="Path_17" data-name="Path 17" class="cls-3" d="M369.64,174.52c0-17.41-14.11-31.52-31.52-31.52l-190.01-8.43c-11.61,0-20.89,14.71-26.36,24.05-2.74,4.67-4.3,10.11-4.3,15.91v126.1c0,17.41,14.11,31.52,31.52,31.52h151.1c4.18,0,8.19,1.66,11.14,4.62l44.97,44.97c3.07,3.08,8.06,3.09,11.15.01,1.48-1.48,9.47-10.84,9.47-12.94l-7.16-194.29ZM230.83,218.12c1.38,1.99,2.58,4.1,3.58,6.32,6.75,14.94,6.19,37.47-14.84,58.42-2.67,2.6-6.9,2.67-9.65.16-2.61-2.37-2.81-6.4-.45-9.02.09-.1.18-.19.27-.28,5.65-5.36,10.01-11.94,12.75-19.23-4.41,2.7-9.49,4.12-14.66,4.11-15.13,0-27.35-11.76-27.35-26.27s12.23-26.27,27.33-26.27c4.12,0,8.18.89,11.92,2.62l.13.06c2.77,1.2,5.28,2.94,7.38,5.11,1.34,1.3,2.53,2.74,3.58,4.29h0ZM290.82,254.48c-4.41,2.7-9.49,4.12-14.66,4.1-15.11,0-27.35-11.76-27.35-26.26s12.25-26.27,27.33-26.27c4.12,0,8.18.89,11.92,2.62l.13.06c2.78,1.2,5.29,2.93,7.39,5.11,1.34,1.3,2.53,2.74,3.58,4.29,1.39,1.99,2.59,4.1,3.59,6.3,6.75,14.94,6.17,37.47-14.84,58.42-2.67,2.61-6.91,2.68-9.66.16-2.61-2.37-2.81-6.4-.45-9.02.09-.1.18-.19.27-.28,5.66-5.36,10.02-11.94,12.77-19.23h-.02Z"/>
  </g>
  <g id="Group_21-2" data-name="Group 21">
    <path id="Path_17-2" data-name="Path 17" class="cls-2" d="M377.89,163.16c0-17.41-14.11-31.52-31.52-31.52h-189.15c-17.41,0-31.52,14.11-31.52,31.52v126.1c0,17.41,14.11,31.52,31.52,31.52h151.1c4.18,0,8.19,1.66,11.14,4.62l44.97,44.97c3.07,3.08,8.06,3.09,11.15.01,1.48-1.48,2.31-3.49,2.32-5.58v-201.65ZM239.09,206.76c1.38,1.99,2.58,4.1,3.58,6.32,6.75,14.94,6.19,37.47-14.84,58.42-2.67,2.6-6.9,2.67-9.65.16-2.61-2.37-2.81-6.4-.45-9.02.09-.1.18-.19.27-.28,5.65-5.36,10.01-11.94,12.75-19.23-4.41,2.7-9.49,4.12-14.66,4.11-15.13,0-27.35-11.76-27.35-26.27s12.23-26.27,27.33-26.27c4.12,0,8.18.89,11.92,2.62l.13.06c2.77,1.2,5.28,2.94,7.38,5.11,1.34,1.3,2.53,2.74,3.58,4.29h0ZM299.08,243.12c-4.41,2.7-9.49,4.12-14.66,4.1-15.11,0-27.35-11.76-27.35-26.26s12.25-26.27,27.33-26.27c4.12,0,8.18.89,11.92,2.62l.13.06c2.78,1.2,5.29,2.93,7.39,5.11,1.34,1.3,2.53,2.74,3.58,4.29,1.39,1.99,2.59,4.1,3.59,6.3,6.75,14.94,6.17,37.47-14.84,58.42-2.67,2.61-6.91,2.68-9.66.16-2.61-2.37-2.81-6.4-.45-9.02.09-.1.18-.19.27-.28,5.66-5.36,10.02-11.94,12.77-19.23h-.02Z"/>
  </g>
</svg>